<svg xmlns="http://www.w3.org/2000/svg" width="20" height="20" viewBox="0 0 24 24">
    <g>
      <path fill="#4285F4" d="M21.6 12.227c0-.818-.073-1.604-.209-2.364H12v4.482h5.352a4.59 4.59 0 0 1-1.988 3.012v2.497h3.217c1.885-1.737 2.979-4.297 2.979-7.627z"/>
      <path fill="#34A853" d="M12 22c2.7 0 4.967-.89 6.623-2.418l-3.217-2.497c-.894.6-2.037.954-3.406.954-2.62 0-4.837-1.77-5.63-4.15H3.025v2.606A9.997 9.997 0 0 0 12 22z"/>
      <path fill="#FBBC05" d="M6.37 13.889A5.996 5.996 0 0 1 6.09 12c0-.654.112-1.288.28-1.889V7.505H3.025A9.997 9.997 0 0 0 2 12c0 1.604.386 3.123 1.025 4.495l3.345-2.606z"/>
      <path fill="#EA4335" d="M12 6.545c1.47 0 2.786.506 3.825 1.5l2.868-2.868C16.967 3.89 14.7 3 12 3A9.997 9.997 0 0 0 3.025 7.505l3.345 2.606C7.163 8.315 9.38 6.545 12 6.545z"/>
    </g>
</svg>